<svg width="282" height="32" viewBox="0 0 282 32" fill="none" xmlns="http://www.w3.org/2000/svg">
<g clip-path="url(#clip0_1_1048)">
<path d="M0 0V32H32.146V0H0ZM2.477 29.2V2.445C6.00021 2.43514 9.49086 3.11943 12.7496 4.45878C16.0083 5.79813 18.9713 7.76631 21.4693 10.2509C23.9672 12.7355 25.9513 15.6879 27.3081 18.9394C28.6649 22.1909 29.368 25.6778 29.377 29.201L2.477 29.2ZM29.377 9.256H22.525V2.445H29.374L29.377 9.256Z" fill="#BE9E55"/>
<path fill-rule="evenodd" clip-rule="evenodd" d="M79.4499 19.894H87.4549V12.273L79.4499 19.894ZM94.5849 25.489H87.2059C86.2999 24.067 83.5839 23.596 80.9969 23.705C78.4647 23.6299 75.9598 24.2467 73.7519 25.489H64.5709L87.0859 6.43098H94.5859L94.5849 25.489ZM144.517 16.074C145.017 13.215 141.675 11.426 138.178 11.426C134.681 11.426 131.063 13.215 130.678 15.831C130.278 18.69 133.525 20.469 137.017 20.469C140.509 20.469 144.121 18.69 144.517 16.074ZM152.797 15.831C151.886 21.282 144.517 26.074 135.981 26.074C127.445 26.074 121.752 21.448 122.658 16.088C123.428 10.607 130.808 5.83498 139.344 5.83498C148.009 5.83498 153.573 10.607 152.798 15.845L152.797 15.831ZM120.971 6.31699L118.644 11.679C117.056 11.4842 115.456 11.4046 113.856 11.441C110.356 11.441 106.746 13.23 106.356 15.846C105.966 18.705 108.162 20.484 112.69 20.484C114.856 20.5476 117.024 20.3931 119.159 20.023L116.959 25.375C114.878 25.8425 112.753 26.0819 110.62 26.089C102.21 26.089 97.4259 21.446 98.3319 16.089C99.1069 10.608 106.477 5.83598 115.018 5.83598C117.012 5.81418 119.004 5.9816 120.967 6.33598L120.971 6.31699ZM50.7359 19.894H58.7409V25.489H42.5859V6.42999H50.7359V19.894ZM62.8939 13.7H72.0799L62.8939 22.159V13.7ZM167.927 20.484C171.805 20.37 173.876 18.829 174.781 16.559L179.569 6.42999H186.939L182.539 16.44C180.348 21.802 174.929 26.088 166.113 26.088C158.743 26.088 154.606 21.564 156.162 16.212C156.287 15.845 156.417 15.489 156.542 15.137L160.299 6.42999H167.669L163.669 15.35C162.763 18.323 164.58 20.583 167.942 20.459L167.927 20.484ZM190.697 20.37C191.401 20.3793 192.101 20.2617 192.763 20.023C193.059 19.9065 193.327 19.7289 193.549 19.5018C193.772 19.2747 193.944 19.0032 194.054 18.705C194.075 18.4181 194.03 18.1302 193.924 17.863L191.077 11.079C190.697 10.133 190.171 7.60998 191.577 6.43098H199.342C198.716 7.34568 198.447 8.45826 198.586 9.55798C198.592 10.2904 198.724 11.0163 198.976 11.704C199.223 12.207 199.439 12.725 199.621 13.255L201.692 18.706C202.013 19.5084 202.013 20.4036 201.692 21.206C200.786 24.893 193.687 27.276 184.871 25.487L183.32 25.259L185.647 20.021C187.309 20.353 189.008 20.4697 190.7 20.368L190.697 20.37ZM224.063 25.489L232.218 6.43098H239.333L231.468 25.489H224.063ZM205.691 25.489L211.78 11.441H204.665L207.127 6.43098H227.69L225.49 11.441H219.801C219.301 11.679 217.601 15.49 216.054 18.829C214.754 21.678 213.592 24.538 213.207 25.489H205.691ZM262.227 6.31699L259.896 11.678C258.307 11.486 256.706 11.4065 255.106 11.44C251.606 11.44 247.991 13.229 247.606 15.845C247.221 18.704 249.412 20.483 253.945 20.483C256.111 20.5463 258.279 20.3919 260.414 20.022L258.214 25.374C256.133 25.8409 254.008 26.0803 251.875 26.088C243.335 26.088 238.681 21.445 239.587 16.088C240.362 10.607 247.732 5.83498 256.268 5.83498C258.264 5.81337 260.258 5.98078 262.222 6.33498L262.227 6.31699ZM269.992 20.37C270.694 20.3788 271.392 20.2612 272.053 20.023C272.344 19.9215 272.604 19.747 272.808 19.5162C273.012 19.2854 273.154 19.0061 273.219 18.705C273.285 18.5746 273.32 18.4303 273.32 18.284C273.32 18.1377 273.285 17.9934 273.219 17.863L270.377 11.079C269.992 10.133 269.466 7.60998 270.877 6.43098H278.637C277.974 7.33241 277.66 8.44292 277.751 9.55798C277.857 10.2862 278.024 11.0041 278.251 11.704C278.498 12.207 278.714 12.725 278.897 13.255L280.968 18.706C281.289 19.5084 281.289 20.4036 280.968 21.206C280.062 24.893 272.963 27.276 264.147 25.487L262.596 25.259L264.927 20.021C266.588 20.3532 268.284 20.4698 269.975 20.368L269.992 20.37Z" fill="#B1B3B4"/>
</g>
<defs>
<clipPath id="clip0_1_1048">
<rect width="281.212" height="32" fill="white"/>
</clipPath>
</defs>
</svg>
