<svg width="277" height="125" viewBox="0 0 277 125" fill="none" xmlns="http://www.w3.org/2000/svg">
<path d="M170.062 60.2247C169.956 61.4021 169.64 62.5501 169.13 63.6154C162.556 75.0805 144.568 74.2776 136.84 63.2583C133.243 58.173 132.132 52.4628 131.821 46.4401C131.2 34.7518 138.484 23.3314 150.431 22.2165C157.36 21.547 166.642 22.2165 170.062 29.1755V43.4511C165.443 39.927 160.78 36.1796 154.34 37.5623C150.698 38.3211 148.255 40.7745 147.544 44.4772C146.434 50.3213 148.61 56.4773 154.828 57.8159C161.446 59.2432 165.843 54.4698 170.062 50.4106V60.2247Z" fill="#101620"/>
<path d="M250.186 44.8342V69.3256H265.997V36.135C265.864 35.1535 265.731 34.1721 265.553 33.1906C264.31 26.0525 256.36 23.376 249.831 24.2682C245.167 24.9377 241.037 26.9006 237.972 30.9598C237.705 31.3169 237.173 30.9152 237.128 30.514L237.217 25.0716H221.894V69.281H237.661V44.8342C238.211 40.9296 241.809 38.2128 245.695 38.7669C246.088 38.8251 246.476 38.9144 246.855 39.0347C248.614 39.572 249.877 41.1218 250.053 42.9606C250.052 43.5871 250.097 44.2137 250.186 44.8342Z" fill="#101620"/>
<path d="M127.469 24.5807C121.991 25.3836 116.425 25.3836 110.947 24.5807V69.4596H127.469V24.5807Z" fill="#101620"/>
<path d="M0 0H15.4117V75.0805H266.219V90.9619H0V0Z" fill="#101620"/>
<path d="M34.3763 40.0163C34.3763 37.1611 39.9281 34.1721 43.2151 34.1721C46.6348 34.1721 51.4317 37.2951 51.4317 40.0163H34.3763ZM61.7354 51.704C62.9347 43.2726 63.5564 32.5217 56.228 26.7668C47.0342 19.5841 33.5769 20.1197 25.6713 28.7744C18.7869 36.269 18.7424 47.1984 21.4961 56.9684C23.2282 63.1244 28.0251 68.2996 33.888 70.1732C41.2152 72.5433 49.1934 71.7513 55.9175 67.9871C61.2026 65.0874 60.4032 58.842 60.4477 53.9794L59.1595 53.5776C54.4959 58.6635 47.212 61.3847 40.7275 59.2879C37.8405 58.351 34.8207 55.184 34.7762 51.7486H61.7354V51.704Z" fill="#101620"/>
<path d="M85.2308 36.0457L91.6265 24.0902H108.282L94.2913 46.6633L108.282 69.1917H90.161L84.5203 58.8867L78.8796 69.1917H62.2242L74.4827 46.6633L62.2242 24.0902H78.8796L85.2308 36.0457Z" fill="#101620"/>
<path d="M195.823 57.7713C191.381 57.6821 188.183 53.533 188.183 46.217C188.183 41.756 190.937 37.0273 195.823 37.0273C200.708 37.0273 203.462 41.756 203.462 46.217C203.462 53.533 200.264 57.6821 195.823 57.7713ZM200.131 21.9041C198.754 21.7702 197.288 21.681 195.867 21.681C194.446 21.681 192.98 21.7702 191.559 21.9041C178.901 23.0642 173.97 33.7258 174.015 45.4587C174.059 55.3626 176.191 66.6938 187.206 70.1732C192.844 71.9576 198.891 71.9576 204.528 70.1732C215.498 66.6938 217.674 55.3626 217.719 45.4587C217.719 33.7704 212.789 23.0642 200.131 21.9041Z" fill="#101620"/>
<path d="M119.252 21.2797C114.278 21.2797 110.236 18.5133 110.236 15.1231C110.236 11.7329 114.278 8.96709 119.252 8.96709C124.227 8.96709 128.268 11.7329 128.268 15.1231C128.268 18.5133 124.227 21.2797 119.252 21.2797Z" fill="#101620"/>
<path d="M273.77 28.1048C273.482 27.96 273.159 27.8979 272.837 27.9268H272.171V29.5326H272.882C273.136 29.5364 273.39 29.5059 273.637 29.4433C273.917 29.3459 274.099 29.0721 274.081 28.7743C274.072 28.5179 273.96 28.2762 273.77 28.1048ZM272.926 27.4358C273.334 27.4074 273.743 27.4684 274.126 27.6143C274.566 27.8005 274.835 28.2517 274.792 28.7297C274.814 29.0857 274.645 29.4264 274.347 29.6219C274.153 29.7286 273.943 29.8042 273.726 29.8445C274.034 29.8625 274.315 30.0285 274.481 30.2909C274.632 30.4798 274.711 30.7176 274.703 30.9599V31.5848C274.702 31.661 274.717 31.7372 274.747 31.8074V31.8521H274.037V31.2723C274.092 30.8837 273.941 30.4939 273.637 30.2462C273.354 30.1352 273.051 30.0895 272.748 30.1123H272.127V31.8521H271.372V27.4358H272.926ZM270.572 27.1679C269.915 27.8135 269.547 28.6986 269.551 29.6219C269.521 30.5407 269.875 31.4307 270.527 32.0752C271.855 33.4252 274.018 33.4448 275.369 32.1199L275.4 32.0889C276.057 31.4433 276.426 30.5581 276.421 29.6349C276.409 27.7183 274.865 26.1674 272.957 26.1554C272.053 26.1598 271.189 26.53 270.559 27.1815M275.844 32.5347C275.104 33.3158 274.075 33.7524 273.002 33.7393C271.94 33.76 270.92 33.3213 270.203 32.5347C268.662 30.9463 268.662 28.4134 270.203 26.8244C270.925 26.0498 271.946 25.6269 273.002 25.6644C274.618 25.6731 276.072 26.6535 276.692 28.1527C277.312 29.6518 276.978 31.3779 275.844 32.5347Z" fill="#101620"/>
<path d="M110.059 108.94H97.6667V98.5011H92.6482V122.056H97.6667V111.082H110.059V119.513C110.029 119.966 110.137 120.417 110.37 120.806C110.578 121.115 110.85 121.374 111.169 121.565C111.483 121.749 111.83 121.871 112.191 121.922C112.514 121.972 112.84 122.001 113.168 122.011H115.077V98.4565H110.059V108.94Z" fill="#101620"/>
<path d="M208.125 122.056V98.5012H203.196L193.38 115.944L183.386 98.5012H178.412V122.056H180.988V103.81L191.514 122.056H192.802L203.062 103.944V119.513C203.053 119.964 203.16 120.41 203.373 120.806C203.581 121.115 203.854 121.374 204.173 121.565C204.487 121.749 204.834 121.871 205.194 121.922C205.518 121.972 205.844 122.001 206.171 122.011H208.125V122.056Z" fill="#101620"/>
<path d="M239.615 122.011L227.091 97.966H225.625L212.744 122.056H215.676L219.673 114.561H228.778L227.534 112.152H220.961L225.181 104.256L233.486 120.182C233.739 120.765 234.156 121.261 234.685 121.61C235.252 121.934 235.899 122.088 236.55 122.056H239.615V122.011Z" fill="#101620"/>
<path d="M265.687 98.5011C265.537 98.4957 265.387 98.5109 265.242 98.5458C265.071 98.5774 264.906 98.6378 264.754 98.7243C264.58 98.8109 264.44 98.9519 264.354 99.1255C264.221 99.322 264.158 99.5583 264.176 99.7951V114.963L247.477 98.5011H244.279V122.056H247.21V104.301L264.176 121.476C264.887 122.1 265.82 122.056 266.753 122.056H267.108V98.5011H265.687Z" fill="#101620"/>
<path d="M134.131 97.966H132.665L119.785 122.011H122.716L132.221 104.211L136.352 112.108H129.734L128.446 114.516H137.595L140.482 120.137C140.749 120.712 141.163 121.204 141.682 121.565C142.248 121.889 142.896 122.044 143.547 122.011H146.656L134.131 97.966Z" fill="#101620"/>
<path d="M156.383 100.553V109.475H158.692C158.692 109.475 161.002 109.52 162.512 108.672C164.022 107.825 165.088 106.665 165.088 104.925C165.052 103.175 163.963 101.622 162.334 100.999C161.514 100.678 160.638 100.527 159.758 100.553H156.383ZM166.376 120.137L159.003 111.26H156.427V122.011H151.408V98.5011H160.602C160.602 98.5011 164.422 98.4565 166.909 99.6611C169.396 100.865 170.462 102.605 170.462 104.791C170.462 106.977 169.13 109.52 164.377 110.814L173.971 122.056H170.107C169.517 122.037 168.934 121.932 168.375 121.743C167.398 121.431 166.376 120.137 166.376 120.137Z" fill="#101620"/>
<path d="M73.5945 120.584C74.1484 120.792 74.7348 120.897 75.3266 120.896C76.9823 120.979 78.3919 119.699 78.4754 118.036C78.4754 117.978 78.4754 117.92 78.4754 117.863C78.4754 116.256 77.4538 115.096 76.0328 115.096C75.1445 115.096 74.4334 115.498 73.5896 116.435L73.5945 120.584ZM72.839 111.082H73.5945V115.632C74.2351 114.906 75.1602 114.498 76.126 114.516C77.9914 114.516 79.2346 115.9 79.2346 117.863C79.2346 120.182 77.6803 121.654 75.3266 121.654C74.4708 121.636 73.627 121.455 72.839 121.119V111.082Z" fill="#101620"/>
<path d="M81.5002 125H80.7453L83.1879 120.182L80.2564 114.606H81.0114L83.5434 119.424L85.986 114.606H86.7409L81.5002 125Z" fill="#101620"/>
</svg>
